<?xml version="1.0" encoding="utf-8"?>
<!-- Generator: Adobe Illustrator 18.1.1, SVG Export Plug-In . SVG Version: 6.00 Build 0)  -->
<svg version="1.1" id="Layer_1" xmlns="http://www.w3.org/2000/svg" xmlns:xlink="http://www.w3.org/1999/xlink" x="0px" y="0px"
	 viewBox="0 0 298.8 36.8" enable-background="new 0 0 298.8 36.8" xml:space="preserve">
<g>
	<path fill="#333333" d="M76.3,9.6c0-4.4-1.6-7.1-5.1-8.5C68.5,0,64.3,0,59.5,0c-1.8,0-15.8,0-15.8,0v34c0,1.6,1.3,2.8,2.8,2.8h6.6
		V4.7h6.4c3.7,0,7.4,0.1,7.4,5.4c0,4.1-2.7,7.9-10,9.3l9.4,15.5c0.7,1.2,2,1.9,3.4,1.9h9.1L67.6,20.6C72.3,19.2,76.3,15.3,76.3,9.6z
		"/>
	<path fill="#333333" d="M287.7,20.6c4.7-1.4,8.7-5.3,8.7-11c0-4.4-1.6-7.1-5.1-8.5C288.5,0,284.3,0,279.5,0c-1.8,0-15.8,0-15.8,0
		v34c0,1.6,1.3,2.8,2.8,2.8h6.6V4.7h6.4c3.7,0,7.4,0.1,7.4,5.4c0,4.1-2.7,7.9-10,9.3l9.4,15.5c0.7,1.2,2,1.9,3.4,1.9h9.1L287.7,20.6
		z"/>
	<path fill="#333333" d="M106,0l-8.6,0L82.8,36.8h3.5c1.7,0,3.2-1,3.7-2.6l2.7-7.5h16.4l3.1,7.7c0.6,1.5,2.1,2.5,3.7,2.5h7.4
		L109.7,2.5C109.1,1,107.7,0,106,0z M94.4,22l6.1-16.9l6.7,16.9H94.4z"/>
	<path fill="#333333" d="M161.2,30L142,1.7c-0.7-1.1-2-1.7-3.3-1.7l-9.3,0v36.8h5.3l-0.6-29.9l19.2,28.2c0.7,1.1,2,1.7,3.3,1.7h9.3
		V0h-5.7L161.2,30z"/>
	<path fill="#333333" d="M198.5,0h-21.6v34c0,1.6,1.3,2.8,2.8,2.8h18.8c11.5,0,14.5-4.6,14.5-18.4S210,0,198.5,0z M203.4,27.3
		c-0.2,2.3-2,4.8-4.9,4.8h-12.2V4.7h12.2c2.9,0,4.7,2.5,4.9,4.8C203.6,11.6,203.6,25.3,203.4,27.3z"/>
	<path fill="#333333" d="M232.5,0H223v34c0,1.6,1.3,2.8,2.8,2.8h25.9c2.2,0,4-1.8,4-4v-1.6l-23.2,0.7V19.2h12.1c2.2,0,4-1.8,4-4
		v-1.6l-16.1,0.6V4.7h19.3c2.2,0,4-1.8,4-4V0L232.5,0L232.5,0z"/>
	<path fill="#333333" d="M28.4,17.5c1.8-1.2,4.2-3.6,4.2-7.9c0-4.4-1.6-7.1-5.1-8.5C24.8,0,20.6,0,15.8,0C14,0,0,0,0,0v34
		c0,1.6,1.3,2.8,2.8,2.8h14.3c4.8,0,8.6-0.2,11.3-1.3c3.5-1.4,5.6-4.2,5.6-9.3C34,21.8,31.6,19.1,28.4,17.5z M17.4,32.2h-8V4.7h6.4
		c3.7,0,7.4,0.1,7.4,5.4c0,1.6-0.5,2.9-1.3,4c-1.2,1.5-3.4,1.5-5.4,1.6c-2.5,0-3.8,0-3.8,0s-0.5,3.6,3.1,4.3c3.3,0.6,6.8-0.1,8.2,3
		c0.4,0.8,0.6,1.8,0.6,2.9C24.5,31,21.2,32.2,17.4,32.2z"/>
</g>
</svg>
